<?xml version="1.0" encoding="UTF-8" standalone="no"?>
<!DOCTYPE svg PUBLIC "-//W3C//DTD SVG 1.1//EN" "http://www.w3.org/Graphics/SVG/1.1/DTD/svg11.dtd">
<svg width="100%" height="100%" viewBox="0 0 1080 1080" version="1.1" xmlns="http://www.w3.org/2000/svg" xmlns:xlink="http://www.w3.org/1999/xlink" xml:space="preserve" xmlns:serif="http://www.serif.com/" style="fill-rule:evenodd;clip-rule:evenodd;stroke-linejoin:round;stroke-miterlimit:2;">
    <g id="veho-logo">
        <g transform="matrix(1.2,0,0,1.22574,468,461.91)">
            <path d="M322.5,181.188C343.211,181.188 360,197.625 360,217.9L360,320.695C360,340.971 343.211,357.407 322.5,357.407L217.5,357.407C196.789,357.407 180,340.971 180,320.695L180,217.9C180,197.625 196.789,181.188 217.5,181.188L322.5,181.188Z" style="fill:rgb(112,123,180);"/>
        </g>
        <g transform="matrix(1.2,0,0,1.22574,216,209.91)">
            <path d="M322.5,181.188C343.211,181.188 360,197.625 360,217.9L360,320.695C360,340.971 343.211,357.407 322.5,357.407L217.5,357.407C196.789,357.407 180,340.971 180,320.695L180,217.9C180,197.625 196.789,181.188 217.5,181.188L322.5,181.188Z" style="fill:rgb(90,105,175);"/>
        </g>
        <g transform="matrix(1.2,0,0,1.22574,-36,-42.0898)">
            <path d="M322.5,181.188C343.211,181.188 360,197.625 360,217.9L360,320.695C360,340.971 343.211,357.407 322.5,357.407L217.5,357.407C196.789,357.407 180,340.971 180,320.695L180,217.9C180,197.625 196.789,181.188 217.5,181.188L322.5,181.188Z" style="fill:rgb(56,72,131);"/>
        </g>
        <g transform="matrix(2.75601,0,0,2.3314,588.247,-270)">
            <path d="M80.461,167.282L80.461,115.81L161.012,115.81C170.631,115.81 178.429,125.028 178.429,136.399L178.429,558.464C178.429,569.835 170.631,579.052 161.012,579.052L80.461,579.052L80.461,527.581L134.888,527.581L134.888,167.282L80.461,167.282Z" style="fill:rgb(132,141,197);"/>
        </g>
        <g transform="matrix(2.75601,0,0,2.3314,-131.753,-270)">
            <path d="M145.773,579.052L65.222,579.052C55.603,579.052 47.805,569.835 47.805,558.464L47.805,136.399C47.805,125.028 55.603,115.81 65.222,115.81L145.773,115.81L145.773,167.282L91.347,167.282L91.347,527.581L145.773,527.581L145.773,579.052Z" style="fill:rgb(132,141,197);"/>
        </g>
    </g>
</svg>
