<?xml version="1.0" encoding="UTF-8" standalone="no"?>
<!DOCTYPE svg PUBLIC "-//W3C//DTD SVG 1.1//EN" "http://www.w3.org/Graphics/SVG/1.1/DTD/svg11.dtd">
<svg width="100%" height="100%" viewBox="0 0 96 96" version="1.1" xmlns="http://www.w3.org/2000/svg" xmlns:xlink="http://www.w3.org/1999/xlink" xml:space="preserve" xmlns:serif="http://www.serif.com/" style="fill-rule:evenodd;clip-rule:evenodd;stroke-linejoin:round;stroke-miterlimit:2;">
    <g id="vect-logo" transform="matrix(0.0740741,0,0,0.0740741,8,8)">
        <g transform="matrix(13.5,0,0,13.5,-108,-108)">
            <rect x="0" y="0" width="96" height="96" style="fill:none;"/>
        </g>
        <g id="element-3" transform="matrix(1.08,0,0,1.10317,475.2,469.719)">
            <path d="M322.5,181.188C343.211,181.188 360,197.625 360,217.9L360,320.695C360,340.971 343.211,357.407 322.5,357.407L217.5,357.407C196.789,357.407 180,340.971 180,320.695L180,217.9C180,197.625 196.789,181.188 217.5,181.188L322.5,181.188Z" style="fill:rgb(112,123,180);"/>
        </g>
        <g id="element-2" transform="matrix(1.08,0,0,1.10317,248.4,242.919)">
            <path d="M322.5,181.188C343.211,181.188 360,197.625 360,217.9L360,320.695C360,340.971 343.211,357.407 322.5,357.407L217.5,357.407C196.789,357.407 180,340.971 180,320.695L180,217.9C180,197.625 196.789,181.188 217.5,181.188L322.5,181.188Z" style="fill:rgb(90,105,175);"/>
        </g>
        <g id="element-1" transform="matrix(1.08,0,0,1.10317,21.6,16.1192)">
            <path d="M322.5,181.188C343.211,181.188 360,197.625 360,217.9L360,320.695C360,340.971 343.211,357.407 322.5,357.407L217.5,357.407C196.789,357.407 180,340.971 180,320.695L180,217.9C180,197.625 196.789,181.188 217.5,181.188L322.5,181.188Z" style="fill:rgb(56,72,131);"/>
        </g>
        <g id="parenthesis" transform="matrix(13.5,0,0,13.5,-108,-108)">
            <path d="M28,88L20,88C13.377,88 8,82.623 8,76L8,20C8,13.377 13.377,8 20,8L28,8L28,17L20,17C18.896,17 18,17.896 18,19L18,77C18,78.104 18.896,79 20,79L28,79L28,88ZM68,8L76,8C82.623,8 88,13.377 88,20L88,76C88,82.623 82.623,88 76,88L68,88L68,79L76,79C77.104,79 78,78.104 78,77L78,19C78,17.896 77.104,17 76,17L68,17L68,8Z" style="fill:rgb(132,141,197);"/>
        </g>
    </g>
</svg>
