<?xml version="1.0" encoding="UTF-8" standalone="no"?>
<!DOCTYPE svg PUBLIC "-//W3C//DTD SVG 1.1//EN" "http://www.w3.org/Graphics/SVG/1.1/DTD/svg11.dtd">
<svg width="100%" height="100%" viewBox="0 0 1296 432" version="1.1" xmlns="http://www.w3.org/2000/svg" xmlns:xlink="http://www.w3.org/1999/xlink" xml:space="preserve" xmlns:serif="http://www.serif.com/" style="fill-rule:evenodd;clip-rule:evenodd;stroke-linejoin:round;stroke-miterlimit:2;">
    <g id="veho-logo-medium" transform="matrix(1,0,0,1,-3.58032,5.66553)">
        <path d="M947.471,230.537C952.598,243.049 961.997,252.571 976.34,257.881C983.481,260.566 991.416,261.909 1000.08,261.909C1008.75,261.909 1016.69,260.566 1023.83,257.881C1038.17,252.51 1047.51,242.988 1052.69,230.476C1055.26,224.189 1056.54,217.476 1056.54,210.273C1056.54,203.071 1055.26,196.357 1052.69,190.071C1047.51,177.62 1038.17,168.098 1023.83,162.727C1016.69,160.103 1008.75,158.76 1000.08,158.76C991.416,158.76 983.481,160.103 976.34,162.788C961.936,168.159 952.598,177.681 947.471,190.193C944.846,196.479 943.564,203.193 943.564,210.396C943.564,217.598 944.846,224.312 947.471,230.537ZM1000.08,245.125C988.486,245.125 979.209,241.89 972.19,235.481C965.171,229.072 961.692,220.71 961.692,210.396C961.692,200.081 965.171,191.719 972.19,185.249C979.209,178.779 988.486,175.544 1000.08,175.544C1011.68,175.544 1020.96,178.779 1027.98,185.188C1034.93,191.597 1038.41,199.958 1038.41,210.273C1038.41,220.588 1034.93,228.95 1027.91,235.42C1020.9,241.89 1011.62,245.125 1000.08,245.125Z" style="fill:rgb(61,66,139);fill-rule:nonzero;"/>
        <path d="M835.959,260.017L835.959,208.992L891.685,208.992L891.685,260.017L909.202,260.017L909.202,160.774L891.685,160.774L891.685,192.268L835.959,192.268L835.959,160.774L818.442,160.774L818.442,260.017L835.959,260.017Z" style="fill:rgb(61,66,139);fill-rule:nonzero;"/>
        <path d="M779.746,260.017L779.746,243.293L712.363,243.293L712.363,216.743L750.205,216.743L750.205,200.02L712.363,200.02L712.363,177.375L777.244,177.375L777.244,160.652L694.846,160.652L694.846,260.017L779.746,260.017Z" style="fill:rgb(61,66,139);fill-rule:nonzero;"/>
        <path d="M599.387,260.017L614.28,260.017L662.986,160.652L645.103,160.652L607.139,238.167L569.236,160.652L550.62,160.652L599.387,260.017Z" style="fill:rgb(61,66,139);fill-rule:nonzero;"/>
    </g>
    <g id="veho-logo" transform="matrix(0.166667,0,0,0.166667,234,126)">
        <g transform="matrix(1.2,0,0,1.22574,468,461.91)">
            <path d="M322.5,181.188C343.211,181.188 360,197.625 360,217.9L360,320.695C360,340.971 343.211,357.407 322.5,357.407L217.5,357.407C196.789,357.407 180,340.971 180,320.695L180,217.9C180,197.625 196.789,181.188 217.5,181.188L322.5,181.188Z" style="fill:rgb(112,123,180);"/>
        </g>
        <g transform="matrix(1.2,0,0,1.22574,216,209.91)">
            <path d="M322.5,181.188C343.211,181.188 360,197.625 360,217.9L360,320.695C360,340.971 343.211,357.407 322.5,357.407L217.5,357.407C196.789,357.407 180,340.971 180,320.695L180,217.9C180,197.625 196.789,181.188 217.5,181.188L322.5,181.188Z" style="fill:rgb(90,105,175);"/>
        </g>
        <g transform="matrix(1.2,0,0,1.22574,-36,-42.0898)">
            <path d="M322.5,181.188C343.211,181.188 360,197.625 360,217.9L360,320.695C360,340.971 343.211,357.407 322.5,357.407L217.5,357.407C196.789,357.407 180,340.971 180,320.695L180,217.9C180,197.625 196.789,181.188 217.5,181.188L322.5,181.188Z" style="fill:rgb(56,72,131);"/>
        </g>
        <g transform="matrix(2.75601,0,0,2.3314,588.247,-270)">
            <path d="M80.461,167.282L80.461,115.81L161.012,115.81C170.631,115.81 178.429,125.028 178.429,136.399L178.429,558.464C178.429,569.835 170.631,579.052 161.012,579.052L80.461,579.052L80.461,527.581L134.888,527.581L134.888,167.282L80.461,167.282Z" style="fill:rgb(132,141,197);"/>
        </g>
        <g transform="matrix(2.75601,0,0,2.3314,-131.753,-270)">
            <path d="M145.773,579.052L65.222,579.052C55.603,579.052 47.805,569.835 47.805,558.464L47.805,136.399C47.805,125.028 55.603,115.81 65.222,115.81L145.773,115.81L145.773,167.282L91.347,167.282L91.347,527.581L145.773,527.581L145.773,579.052Z" style="fill:rgb(132,141,197);"/>
        </g>
    </g>
</svg>
