<?xml version="1.0" encoding="UTF-8" standalone="no"?>
<!DOCTYPE svg PUBLIC "-//W3C//DTD SVG 1.1//EN" "http://www.w3.org/Graphics/SVG/1.1/DTD/svg11.dtd">
<svg width="100%" height="100%" viewBox="0 0 1080 1080" version="1.1" xmlns="http://www.w3.org/2000/svg" xmlns:xlink="http://www.w3.org/1999/xlink" xml:space="preserve" xmlns:serif="http://www.serif.com/" style="fill-rule:evenodd;clip-rule:evenodd;stroke-linejoin:round;stroke-miterlimit:2;">
    <g id="veho-logo">
        <g transform="matrix(1.2,0,0,1.22574,468,461.91)">
            <path d="M322.5,181.188C343.211,181.188 360,197.625 360,217.9L360,320.695C360,340.971 343.211,357.407 322.5,357.407L217.5,357.407C196.789,357.407 180,340.971 180,320.695L180,217.9C180,197.625 196.789,181.188 217.5,181.188L322.5,181.188Z" style="fill:rgb(112,123,180);"/>
        </g>
        <g transform="matrix(1.2,0,0,1.22574,216,209.91)">
            <path d="M322.5,181.188C343.211,181.188 360,197.625 360,217.9L360,320.695C360,340.971 343.211,357.407 322.5,357.407L217.5,357.407C196.789,357.407 180,340.971 180,320.695L180,217.9C180,197.625 196.789,181.188 217.5,181.188L322.5,181.188Z" style="fill:rgb(90,105,175);"/>
        </g>
        <g transform="matrix(1.2,0,0,1.22574,-36,-42.0898)">
            <path d="M322.5,181.188C343.211,181.188 360,197.625 360,217.9L360,320.695C360,340.971 343.211,357.407 322.5,357.407L217.5,357.407C196.789,357.407 180,340.971 180,320.695L180,217.9C180,197.625 196.789,181.188 217.5,181.188L322.5,181.188Z" style="fill:rgb(56,72,131);"/>
        </g>
        <g transform="matrix(2.75601,0,0,2.3314,588.247,-270)">
            <path d="M80.461,131.252C80.461,122.724 86.31,115.81 93.524,115.81C116.331,115.81 161.012,115.81 161.012,115.81C170.631,115.81 178.429,125.028 178.429,136.399L178.429,558.464C178.429,569.835 170.631,579.052 161.012,579.052L93.524,579.052C86.31,579.052 80.461,572.139 80.461,563.611C80.461,557.099 80.461,549.534 80.461,543.022C80.461,538.927 81.838,535 84.287,532.104C86.737,529.208 90.059,527.581 93.524,527.581C109.626,527.581 134.888,527.581 134.888,527.581L134.888,167.282L93.524,167.282C90.059,167.282 86.737,165.655 84.287,162.759C81.838,159.863 80.461,155.936 80.461,151.84C80.461,145.329 80.461,137.764 80.461,131.252Z" style="fill:rgb(132,141,197);"/>
        </g>
        <g transform="matrix(2.75601,0,0,2.3314,-131.753,-270)">
            <path d="M145.773,563.611C145.773,572.139 139.925,579.052 132.711,579.052C109.904,579.052 65.222,579.052 65.222,579.052C55.603,579.052 47.805,569.835 47.805,558.464L47.805,136.399C47.805,125.028 55.603,115.81 65.222,115.81L132.711,115.81C139.925,115.81 145.773,122.724 145.773,131.252C145.773,137.764 145.773,145.329 145.773,151.84C145.773,155.936 144.397,159.863 141.947,162.759C139.498,165.655 136.175,167.282 132.711,167.282C116.608,167.282 91.347,167.282 91.347,167.282L91.347,527.581L132.711,527.581C136.175,527.581 139.498,529.208 141.947,532.104C144.397,535 145.773,538.927 145.773,543.022C145.773,549.534 145.773,557.099 145.773,563.611Z" style="fill:rgb(132,141,197);"/>
        </g>
    </g>
</svg>
